<?xml version="1.0" encoding="utf-8"?>
<!-- Generator: Adobe Illustrator 24.1.2, SVG Export Plug-In . SVG Version: 6.00 Build 0)  -->
<svg version="1.1" xmlns="http://www.w3.org/2000/svg" xmlns:xlink="http://www.w3.org/1999/xlink" x="0px" y="0px"
	 viewBox="0 0 1280 1024" style="enable-background:new 0 0 1280 1024;" xml:space="preserve">
<style type="text/css">
	.st0{fill:none;stroke:#000000;stroke-miterlimit:10;}
	.st1{stroke:#000000;stroke-width:0.25;stroke-miterlimit:10;}
	.st2{fill:none;stroke:#000000;stroke-width:4;stroke-miterlimit:10;}
</style>
<g id="Layer_1">
	<g>
		<g>
			<g>
				<g>
					<path d="M466.09,91.33c44.04-1.33,88.1-1.35,132.16-1.24c11.7,0.03,11.72-18.15,0-18.18c-44.06-0.11-88.12-0.09-132.16,1.24
						C454.41,73.5,454.36,91.68,466.09,91.33L466.09,91.33z"/>
				</g>
			</g>
			<g>
				<g>
					<path d="M466,100.58c44.08-0.09,88.05-3.7,132.1-4.92c11.68-0.32,11.72-18.51,0-18.18c-44.05,1.22-88.02,4.83-132.1,4.92
						C454.3,82.42,454.28,100.6,466,100.58L466,100.58z"/>
				</g>
			</g>
			<g>
				<g>
					<path d="M463.71,103.76c11.04,1.77,22.01,1.14,33.14,0.97c11.39-0.18,22.77-0.56,34.15-0.97c22.51-0.83,45.01-1.87,67.52-2.37
						c11.68-0.26,11.73-18.44,0-18.18c-21.87,0.48-43.71,1.48-65.57,2.3c-10.74,0.4-21.47,0.76-32.22,0.97
						c-10.57,0.21-21.72,1.44-32.2-0.24c-4.84-0.78-9.78,1.25-11.18,6.35C456.17,96.91,458.84,102.98,463.71,103.76L463.71,103.76z"
						/>
				</g>
			</g>
			<g>
				<g>
					<path d="M481.85,100.97c1.52,33.85-0.5,70.49,15.66,101.38c6.46,12.35,15.61,21.62,26.33,30.33
						c11.63,9.46,24.98,21.17,25.2,37.44c0.06,4.4,6.91,4.42,6.85,0c-0.2-14.88-9.9-27.46-20.66-36.84
						c-10.48-9.13-21.34-16.92-28.74-28.98c-18.76-30.56-16.24-68.85-17.78-103.33C488.5,96.58,481.65,96.55,481.85,100.97
						L481.85,100.97z"/>
				</g>
			</g>
		</g>
		<g>
			<g>
				<g>
					<path d="M676.36,73.14c-44.04-1.33-88.1-1.35-132.16-1.24c-11.7,0.03-11.72,18.21,0,18.18c44.06-0.11,88.12-0.09,132.16,1.24
						C688.06,91.68,688.05,73.5,676.36,73.14L676.36,73.14z"/>
				</g>
			</g>
			<g>
				<g>
					<path d="M676.45,82.39c-44.08-0.09-88.05-3.7-132.1-4.92c-11.71-0.32-11.7,17.86,0,18.18c44.05,1.22,88.02,4.83,132.1,4.92
						C688.15,100.6,688.16,82.42,676.45,82.39L676.45,82.39z"/>
				</g>
			</g>
			<g>
				<g>
					<path d="M673.9,86.23c-10.17,1.63-20.96,0.46-31.22,0.26c-11.07-0.22-22.13-0.58-33.19-0.99c-21.85-0.82-43.7-1.82-65.57-2.3
						c-11.71-0.26-11.7,17.92,0,18.18c22.52,0.5,45.02,1.54,67.52,2.37c11.06,0.41,22.12,0.76,33.18,0.96
						c11.43,0.2,22.77,0.87,34.11-0.95c4.85-0.78,7.55-6.82,6.35-11.18C683.66,87.42,678.76,85.45,673.9,86.23L673.9,86.23z"/>
				</g>
			</g>
			<g>
				<g>
					<path d="M653.74,100.97c-1.55,34.48,0.97,72.77-17.78,103.33c-7.4,12.06-18.26,19.86-28.74,28.98
						c-10.77,9.37-20.46,21.97-20.66,36.84c-0.06,4.41,6.79,4.41,6.85,0c0.22-16.27,13.57-27.97,25.2-37.44
						c10.71-8.72,19.86-17.98,26.33-30.33c16.16-30.89,14.14-67.54,15.66-101.38C660.79,96.56,653.94,96.57,653.74,100.97
						L653.74,100.97z"/>
				</g>
			</g>
		</g>
		<g>
			<g>
				<g>
					<path d="M466.09,469.42c44.04,1.33,88.1,1.35,132.16,1.24c11.7-0.03,11.72-18.21,0-18.18c-44.06,0.11-88.12,0.09-132.16-1.24
						C454.38,450.89,454.39,469.07,466.09,469.42L466.09,469.42z"/>
				</g>
			</g>
			<g>
				<g>
					<path d="M466,460.17c44.08,0.09,88.05,3.7,132.1,4.92c11.71,0.32,11.7-17.86,0-18.18c-44.05-1.22-88.02-4.83-132.1-4.92
						C454.3,441.96,454.28,460.15,466,460.17L466,460.17z"/>
				</g>
			</g>
			<g>
				<g>
					<path d="M468.55,456.34c10.17-1.63,20.96-0.46,31.22-0.26c11.07,0.22,22.13,0.58,33.19,0.99c21.85,0.82,43.7,1.82,65.57,2.3
						c11.71,0.26,11.7-17.92,0-18.18c-22.52-0.5-45.02-1.54-67.52-2.37c-11.06-0.41-22.12-0.76-33.18-0.96
						c-11.43-0.2-22.77-0.87-34.11,0.95c-4.85,0.78-7.55,6.82-6.35,11.18C458.78,455.15,463.68,457.12,468.55,456.34L468.55,456.34z
						"/>
				</g>
			</g>
			<g>
				<g>
					<path d="M488.7,441.6c1.55-34.48-0.97-72.77,17.78-103.33c7.4-12.06,18.26-19.86,28.74-28.98
						c10.77-9.37,20.46-21.97,20.66-36.84c0.06-4.41-6.79-4.41-6.85,0c-0.22,16.27-13.57,27.97-25.2,37.44
						c-10.71,8.72-19.86,17.98-26.33,30.33c-16.16,30.89-14.14,67.54-15.66,101.38C481.65,446.01,488.5,446,488.7,441.6L488.7,441.6
						z"/>
				</g>
			</g>
		</g>
		<g>
			<g>
				<g>
					<path d="M676.36,451.24c-44.04,1.33-88.1,1.35-132.16,1.24c-11.7-0.03-11.72,18.15,0,18.18c44.06,0.11,88.12,0.09,132.16-1.24
						C688.03,469.07,688.08,450.89,676.36,451.24L676.36,451.24z"/>
				</g>
			</g>
			<g>
				<g>
					<path d="M676.45,441.99c-44.08,0.09-88.05,3.7-132.1,4.92c-11.68,0.32-11.72,18.51,0,18.18c44.05-1.22,88.02-4.83,132.1-4.92
						C688.15,460.15,688.17,441.96,676.45,441.99L676.45,441.99z"/>
				</g>
			</g>
			<g>
				<g>
					<path d="M678.73,438.8c-11.04-1.77-22.01-1.14-33.14-0.97c-11.39,0.18-22.77,0.56-34.15,0.97
						c-22.51,0.83-45.01,1.87-67.52,2.37c-11.68,0.26-11.73,18.44,0,18.18c21.87-0.48,43.71-1.48,65.57-2.3
						c10.74-0.4,21.47-0.76,32.22-0.97c10.57-0.21,21.72-1.44,32.2,0.24c4.84,0.78,9.78-1.25,11.18-6.35
						C686.27,445.66,683.61,439.59,678.73,438.8L678.73,438.8z"/>
				</g>
			</g>
			<g>
				<g>
					<path d="M660.59,441.6c-1.52-33.85,0.5-70.49-15.66-101.38c-6.46-12.35-15.61-21.62-26.33-30.33
						c-11.63-9.46-24.98-21.17-25.2-37.44c-0.06-4.4-6.91-4.42-6.85,0c0.2,14.88,9.9,27.46,20.66,36.84
						c10.48,9.13,21.34,16.92,28.74,28.98c18.76,30.56,16.24,68.85,17.78,103.33C653.94,445.99,660.79,446.01,660.59,441.6
						L660.59,441.6z"/>
				</g>
			</g>
		</g>
	</g>
	<rect x="469.05" y="99.26" class="st0" width="0.78" height="367.88"/>
	<rect x="673.1" y="98.65" class="st0" width="0" height="369.11"/>
	
		<ellipse transform="matrix(0.1736 -0.9848 0.9848 0.1736 553.1628 874.7365)" class="st1" cx="797.82" cy="107.75" rx="4.2" ry="16.06"/>
	
		<ellipse transform="matrix(0.7071 -0.7071 0.7071 0.7071 178.2005 608.7464)" class="st1" cx="823.92" cy="89.27" rx="16.06" ry="4.2"/>
	<ellipse transform="matrix(0.866 -0.5 0.5 0.866 -30.2519 460.1594)" class="st1" cx="843.54" cy="286.53" rx="16.06" ry="4.2"/>
	
		<ellipse transform="matrix(0.8192 -0.5736 0.5736 0.8192 7.233 531.6485)" class="st1" cx="846.7" cy="254.35" rx="16.06" ry="4.2"/>
	
		<ellipse transform="matrix(0.766 -0.6428 0.6428 0.766 59.1799 594.8099)" class="st1" cx="846.7" cy="216.11" rx="16.06" ry="4.2"/>
	
		<ellipse transform="matrix(0.7071 -0.7071 0.7071 0.7071 119.0669 649.4944)" class="st1" cx="843.54" cy="181.02" rx="16.06" ry="4.2"/>
	
		<ellipse transform="matrix(0.7071 -0.7071 0.7071 0.7071 142.8317 636.6949)" class="st1" cx="839.97" cy="145.93" rx="16.06" ry="4.2"/>
	
		<ellipse transform="matrix(0.7071 -0.7071 0.7071 0.7071 163.4526 622.6264)" class="st1" cx="833.3" cy="114.01" rx="16.06" ry="4.2"/>
	
		<ellipse transform="matrix(0.1736 -0.9848 0.9848 0.1736 407.0587 1029.3136)" class="st1" cx="816.87" cy="272.1" rx="4.2" ry="16.06"/>
	
		<ellipse transform="matrix(0.342 -0.9397 0.9397 0.342 315.7082 925.7447)" class="st1" cx="818.9" cy="237.43" rx="4.2" ry="16.06"/>
	
		<ellipse transform="matrix(0.2588 -0.9659 0.9659 0.2588 409.7354 940.1266)" class="st1" cx="817.47" cy="203.07" rx="4.2" ry="16.06"/>
	
		<ellipse transform="matrix(0.1736 -0.9848 0.9848 0.1736 505.5116 943.8796)" class="st1" cx="815.19" cy="170.72" rx="4.2" ry="16.06"/>
	
		<ellipse transform="matrix(0.1736 -0.9848 0.9848 0.1736 530.637 910.857)" class="st1" cx="808.08" cy="139.23" rx="4.2" ry="16.06"/>
	<ellipse class="st1" cx="575.43" cy="553.65" rx="4.2" ry="16.06"/>
	
		<ellipse transform="matrix(0.9848 -0.1736 0.1736 0.9848 -86.3332 115.2274)" class="st1" cx="615.36" cy="551.01" rx="4.2" ry="16.06"/>
	<ellipse transform="matrix(0.866 -0.5 0.5 0.866 -183.8029 398.0238)" class="st1" cx="650.82" cy="541.99" rx="4.2" ry="16.06"/>
	
		<ellipse transform="matrix(0.766 -0.6428 0.6428 0.766 -181.3046 562.6524)" class="st1" cx="682.28" cy="530.39" rx="4.2" ry="16.06"/>
	
		<ellipse transform="matrix(0.6428 -0.766 0.766 0.6428 -141.4544 728.9982)" class="st1" cx="710.94" cy="516.17" rx="4.2" ry="16.06"/>
	<ellipse transform="matrix(0.5 -0.866 0.866 0.5 -60.9629 886.0209)" class="st1" cx="736.83" cy="495.81" rx="4.2" ry="16.06"/>
	
		<ellipse transform="matrix(0.1736 -0.9848 0.9848 0.1736 163.8632 1140.9282)" class="st1" cx="761.78" cy="472.82" rx="4.2" ry="16.06"/>
	
		<ellipse transform="matrix(0.1736 -0.9848 0.9848 0.1736 205.3305 1140.0251)" class="st1" cx="781.98" cy="447.66" rx="4.2" ry="16.06"/>
	
		<ellipse transform="matrix(0.9848 -0.1736 0.1736 0.9848 -60.5466 144.8967)" class="st1" cx="797.82" cy="418.47" rx="16.06" ry="4.2"/>
	
		<ellipse transform="matrix(0.9397 -0.342 0.342 0.9397 -83.8663 301.1033)" class="st1" cx="811.89" cy="388.37" rx="16.06" ry="4.2"/>
	<ellipse transform="matrix(0.866 -0.5 0.5 0.866 -67.718 459.6836)" class="st1" cx="823.92" cy="356.21" rx="16.06" ry="4.2"/>
	<ellipse transform="matrix(0.866 -0.5 0.5 0.866 -48.9169 460.1754)" class="st1" cx="834.24" cy="321.37" rx="16.06" ry="4.2"/>
	
		<ellipse transform="matrix(0.1736 -0.9848 0.9848 0.1736 371.2188 1047.9812)" class="st1" cx="810.08" cy="302.79" rx="4.2" ry="16.06"/>
	<ellipse transform="matrix(0.5 -0.866 0.866 0.5 112.4121 861.3336)" class="st1" cx="802.14" cy="333.32" rx="4.2" ry="16.06"/>
	
		<ellipse transform="matrix(0.6428 -0.766 0.766 0.6428 6.0818 736.7771)" class="st1" cx="793.05" cy="361.87" rx="4.2" ry="16.06"/>
	
		<ellipse transform="matrix(0.766 -0.6428 0.6428 0.766 -69.7208 594.6117)" class="st1" cx="781.98" cy="393.08" rx="4.2" ry="16.06"/>
	
		<ellipse transform="matrix(0.766 -0.6428 0.6428 0.766 -87.823 589.6783)" class="st1" cx="766.15" cy="415.48" rx="4.2" ry="16.06"/>
	<ellipse transform="matrix(0.866 -0.5 0.5 0.866 -119.8788 433.7516)" class="st1" cx="749.45" cy="440.57" rx="4.2" ry="16.06"/>
	<ellipse transform="matrix(0.866 -0.5 0.5 0.866 -134.1944 427.4248)" class="st1" cx="730.49" cy="464.12" rx="4.2" ry="16.06"/>
	
		<ellipse transform="matrix(0.9848 -0.1736 0.1736 0.9848 -72.8766 130.0681)" class="st1" cx="706.9" cy="481.53" rx="4.2" ry="16.06"/>
	<ellipse class="st1" cx="595.31" cy="520.05" rx="4.2" ry="16.06"/>
	
		<ellipse transform="matrix(0.9848 -0.1736 0.1736 0.9848 -75.8888 126.1988)" class="st1" cx="683.28" cy="496.81" rx="4.2" ry="16.06"/>
	
		<ellipse transform="matrix(0.9962 -0.0872 0.0872 0.9962 -41.5624 59.1808)" class="st1" cx="656.95" cy="505.56" rx="4.2" ry="16.06"/>
	
		<ellipse transform="matrix(0.9962 -0.0872 0.0872 0.9962 -42.5226 56.5701)" class="st1" cx="626.57" cy="515.25" rx="4.2" ry="16.06"/>
	<g>
		
			<ellipse transform="matrix(0.9848 -0.1736 0.1736 0.9848 -13.2937 61.9222)" class="st1" cx="347.24" cy="106.93" rx="16.06" ry="4.2"/>
		
			<ellipse transform="matrix(0.7071 -0.7071 0.7071 0.7071 31.5144 252.9823)" class="st1" cx="321.13" cy="88.45" rx="4.2" ry="16.06"/>
		<ellipse transform="matrix(0.5 -0.866 0.866 0.5 -96.6791 403.9752)" class="st1" cx="301.51" cy="285.71" rx="4.2" ry="16.06"/>
		
			<ellipse transform="matrix(0.5736 -0.8192 0.8192 0.5736 -80.4615 352.5108)" class="st1" cx="298.35" cy="253.54" rx="4.2" ry="16.06"/>
		
			<ellipse transform="matrix(0.6428 -0.766 0.766 0.6428 -58.3471 305.456)" class="st1" cx="298.35" cy="215.29" rx="4.2" ry="16.06"/>
		
			<ellipse transform="matrix(0.7071 -0.7071 0.7071 0.7071 -39.1126 265.9828)" class="st1" cx="301.51" cy="180.2" rx="4.2" ry="16.06"/>
		
			<ellipse transform="matrix(0.7071 -0.7071 0.7071 0.7071 -13.2576 258.2292)" class="st1" cx="305.08" cy="145.12" rx="4.2" ry="16.06"/>
		
			<ellipse transform="matrix(0.7071 -0.7071 0.7071 0.7071 11.2715 253.5959)" class="st1" cx="311.75" cy="113.19" rx="4.2" ry="16.06"/>
		
			<ellipse transform="matrix(0.9848 -0.1736 0.1736 0.9848 -42.1222 61.1099)" class="st1" cx="328.18" cy="271.28" rx="16.06" ry="4.2"/>
		
			<ellipse transform="matrix(0.9397 -0.342 0.342 0.9397 -61.2585 125.8203)" class="st1" cx="326.15" cy="236.62" rx="16.06" ry="4.2"/>
		
			<ellipse transform="matrix(0.9659 -0.2588 0.2588 0.9659 -41.1859 91.6783)" class="st1" cx="327.59" cy="202.26" rx="16.06" ry="4.2"/>
		
			<ellipse transform="matrix(0.9848 -0.1736 0.1736 0.9848 -24.4916 59.8617)" class="st1" cx="329.86" cy="169.9" rx="16.06" ry="4.2"/>
		
			<ellipse transform="matrix(0.9848 -0.1736 0.1736 0.9848 -18.9166 60.6188)" class="st1" cx="336.98" cy="138.42" rx="16.06" ry="4.2"/>
		
			<ellipse transform="matrix(0.1736 -0.9848 0.9848 0.1736 -104.1203 976.3013)" class="st1" cx="529.7" cy="550.19" rx="16.06" ry="4.2"/>
		<ellipse transform="matrix(0.5 -0.866 0.866 0.5 -221.5549 698.6083)" class="st1" cx="494.24" cy="541.18" rx="16.06" ry="4.2"/>
		
			<ellipse transform="matrix(0.6428 -0.766 0.766 0.6428 -240.3702 543.674)" class="st1" cx="462.77" cy="529.57" rx="16.06" ry="4.2"/>
		
			<ellipse transform="matrix(0.766 -0.6428 0.6428 0.766 -229.7023 399.6129)" class="st1" cx="434.11" cy="515.36" rx="16.06" ry="4.2"/>
		<ellipse transform="matrix(0.866 -0.5 0.5 0.866 -192.8034 270.4264)" class="st1" cx="408.22" cy="494.99" rx="16.06" ry="4.2"/>
		
			<ellipse transform="matrix(0.9848 -0.1736 0.1736 0.9848 -76.1403 73.7254)" class="st1" cx="383.27" cy="472.01" rx="16.06" ry="4.2"/>
		
			<ellipse transform="matrix(0.9848 -0.1736 0.1736 0.9848 -72.078 69.8362)" class="st1" cx="363.08" cy="446.84" rx="16.06" ry="4.2"/>
		
			<ellipse transform="matrix(0.1736 -0.9848 0.9848 0.1736 -124.3715 687.0969)" class="st1" cx="347.24" cy="417.66" rx="4.2" ry="16.06"/>
		
			<ellipse transform="matrix(0.342 -0.9397 0.9397 0.342 -144.9605 568.0757)" class="st1" cx="333.17" cy="387.55" rx="4.2" ry="16.06"/>
		<ellipse transform="matrix(0.5 -0.866 0.866 0.5 -147.2091 455.8046)" class="st1" cx="321.13" cy="355.39" rx="4.2" ry="16.06"/>
		<ellipse transform="matrix(0.5 -0.866 0.866 0.5 -122.1982 429.4498)" class="st1" cx="310.82" cy="320.55" rx="4.2" ry="16.06"/>
		
			<ellipse transform="matrix(0.9848 -0.1736 0.1736 0.9848 -47.3482 62.7563)" class="st1" cx="334.98" cy="301.97" rx="16.06" ry="4.2"/>
		<ellipse transform="matrix(0.866 -0.5 0.5 0.866 -120.3076 216.0031)" class="st1" cx="342.91" cy="332.5" rx="16.06" ry="4.2"/>
		
			<ellipse transform="matrix(0.766 -0.6428 0.6428 0.766 -149.7258 310.7335)" class="st1" cx="352" cy="361.05" rx="16.06" ry="4.2"/>
		
			<ellipse transform="matrix(0.6428 -0.766 0.766 0.6428 -170.7993 418.255)" class="st1" cx="363.08" cy="392.27" rx="16.06" ry="4.2"/>
		
			<ellipse transform="matrix(0.6428 -0.766 0.766 0.6428 -182.3054 438.382)" class="st1" cx="378.9" cy="414.67" rx="16.06" ry="4.2"/>
		<ellipse transform="matrix(0.5 -0.866 0.866 0.5 -183.038 562.4814)" class="st1" cx="395.6" cy="439.76" rx="16.06" ry="4.2"/>
		<ellipse transform="matrix(0.5 -0.866 0.866 0.5 -193.951 590.6794)" class="st1" cx="414.57" cy="463.31" rx="16.06" ry="4.2"/>
		
			<ellipse transform="matrix(0.1736 -0.9848 0.9848 0.1736 -111.3384 828.7303)" class="st1" cx="438.15" cy="480.71" rx="16.06" ry="4.2"/>
		<ellipse class="st1" cx="549.75" cy="519.23" rx="4.2" ry="16.06"/>
		
			<ellipse transform="matrix(0.1736 -0.9848 0.9848 0.1736 -106.8688 864.618)" class="st1" cx="461.77" cy="495.99" rx="16.06" ry="4.2"/>
		
			<ellipse transform="matrix(0.0872 -0.9962 0.9962 0.0872 -57.2564 946.9985)" class="st1" cx="488.11" cy="504.74" rx="16.06" ry="4.2"/>
		
			<ellipse transform="matrix(0.0872 -0.9962 0.9962 0.0872 -39.1807 986.1069)" class="st1" cx="518.48" cy="514.43" rx="16.06" ry="4.2"/>
	</g>
</g>
<g id="Layer_2">
	<path class="st2" d="M339.18,88.7c-5.33,15.31-11.33,29.31-14.33,45.31c0,1-2,3-2,4c-28,122-3,252,88,339
		c46,43,108,63,168.78,58.88"/>
	<path class="st2" d="M807.63,88.7c13.22,33.31,22.22,68.31,25.22,104.31c5,65-3,131-32,190c-1,2,0,3-1,5c-27,57-70,106-128,131
		c-2,1-3,0-5,1c-34,14-71,19-107.39,15.1"/>
</g>
</svg>
